# xmcd
#
# Track frame offsets:
#	150
#	18600
#	29252
#	43727
#	52427
#	64050
#	74697
#	90002
#	102075
#	113775
#	126000
#	139200
#	149097
#	159600
#	170630
#	183370
#	196730
#	209522
#	222792
#	239177
#	254785
#	267142
#	281032
#
# Disc length: 3885 seconds
#
# Revision: 1
# Processed by: cddbd v1.5.2PL0 Copyright (c) Steve Scherf et al.
# Submitted via: audiograbber 1.83.01
#
DISCID=730f2b17
DTITLE=Tom T. Marshall - Gone Country
DYEAR=1900
DGENRE=Country
TTITLE0=Bob Mc Dill - Gone Country
TTITLE1=J. Brown - A Picture of you
TTITLE2=E. Cochran/J. Capehart - Summertime Blues
TTITLE3=R. Nelson - It´s late
TTITLE4=T. T. Hall - Little Bitty
TTITLE5=E. Cochran/J. Capehart - 3 Steps to Heaven
TTITLE6=Tractors - Baby likes to Rock
TTITLE7=Lionel/Bart - Living Doll
TTITLE8=G. Strait - Amarillo by Morning
TTITLE9=E. Presley  - A Mess of Blues
TTITLE10=J. Hayes - Who´s cheating who
TTITLE11=Abilene
TTITLE12=R. Nelson - Traveling Man
TTITLE13=A. Jackson - Chattahoochee
TTITLE14=T.Roe/B. Hoilly - Sheila/Peggy Sue
TTITLE15=E. Presley - I feel so bad
TTITLE16=M. Stuart - Burn me
TTITLE17=C. Berry - Sweet little 16
TTITLE18=G. Brooks - Cowboy Song
TTITLE19=Mc Graw - All I want is a Life
TTITLE20=Cascades - Falling Rain
TTITLE21=Bellamy Bros - Redneck Girl
TTITLE22=Everlys Bros - Bye, bye Love
EXTD=
EXTT0=
EXTT1=
EXTT2=
EXTT3=
EXTT4=
EXTT5=
EXTT6=
EXTT7=
EXTT8=
EXTT9=
EXTT10=
EXTT11=
EXTT12=
EXTT13=
EXTT14=
EXTT15=
EXTT16=
EXTT17=
EXTT18=
EXTT19=
EXTT20=
EXTT21=
EXTT22=
PLAYORDER=
